<svg width="109" height="84" viewBox="0 0 109 84" fill="none" xmlns="http://www.w3.org/2000/svg">
<path d="M19.434 63.1409L19.1931 61.7659L19.4099 61.6904L21.3435 66.0013L21.1268 66.0768L20.2357 64.9284L6.03991 69.8742L7.0303 72.0822C7.63715 71.8708 8.2541 71.7936 8.88115 71.8507C9.5082 71.9079 10.0913 72.0532 10.6305 72.2868L10.7248 72.4971C10.5307 72.5485 10.3293 72.6025 10.1208 72.6589C9.94108 72.7053 9.75418 72.7542 9.56006 72.8057C9.35149 72.8621 9.14607 72.9256 8.94379 72.9961C8.66926 73.0917 8.434 73.1818 8.23801 73.2663C8.02757 73.3558 7.84602 73.4352 7.69337 73.5046C7.52628 73.5791 7.38086 73.6459 7.25711 73.7053L3.15404 64.5577C3.29666 64.5404 3.4578 64.5086 3.63747 64.4622C3.80269 64.4208 3.99682 64.3694 4.21983 64.3079C4.42212 64.2375 4.66052 64.1544 4.93504 64.0588C5.13733 63.9883 5.33961 63.9178 5.54189 63.8473C5.72343 63.7679 5.89775 63.6909 6.06485 63.6165C6.26084 63.532 6.44647 63.443 6.62172 63.3495L6.71605 63.5598C6.50387 64.0552 6.19116 64.5127 5.77791 64.9322C5.36466 65.3518 4.85461 65.6673 4.24777 65.8787L5.23816 68.0867L19.434 63.1409Z" fill="#333333"/>
<path d="M12.0553 50.9259L12.4023 55.6375L16.3898 56.8147L16.8537 55.3249L17.0832 55.3266L17.3372 58.7741L17.1076 58.7724L16.4236 57.2744L0.482421 52.6803L0.457031 52.3355L15.9423 47.6231L16.1851 46.2466L16.4146 46.2482L16.7701 51.0747L16.5405 51.073L16.0946 49.6916L12.0553 50.9259ZM11.9577 55.5194L11.6293 51.0607L4.19964 53.3043L11.9577 55.5194Z" fill="#333333"/>
<path d="M2.30901 35.7095C2.61124 34.775 2.97417 34.0012 3.39779 33.3881C3.82141 32.775 4.27927 32.3048 4.77138 31.9775C5.26349 31.6502 5.77544 31.4607 6.30724 31.4088C6.82462 31.3517 7.34261 31.4172 7.86118 31.6052C8.27893 31.7567 8.63221 31.9582 8.92102 32.2098C9.20015 32.4415 9.4363 32.7066 9.62948 33.005C9.81297 33.2836 9.94865 33.5857 10.0365 33.9112C10.1244 34.2367 10.1834 34.5518 10.2136 34.8564C10.2843 35.5835 10.2281 36.3543 10.0451 37.1689C10.3249 36.5526 10.6651 36.0234 11.0656 35.5813C11.4136 35.2018 11.8459 34.8854 12.3623 34.6322C12.8787 34.379 13.4801 34.3361 14.1663 34.5034L18.0893 35.4365C18.3724 35.5065 18.5881 35.5114 18.7364 35.4509C18.8847 35.3905 18.9801 35.2946 19.0226 35.1632C19.0462 35.0902 19.0482 35.0093 19.0286 34.9207C18.9994 34.8122 18.9605 34.7084 18.9121 34.6092C18.8637 34.5101 18.7913 34.4105 18.6949 34.3103L18.9819 34.1696C19.1408 34.3251 19.2663 34.5093 19.3584 34.7221C19.4311 34.8953 19.4825 35.1097 19.5125 35.3653C19.5472 35.6063 19.5174 35.8728 19.4229 36.1648C19.2624 36.6613 18.9933 37.0205 18.6157 37.2424C18.2284 37.4446 17.8405 37.4997 17.4518 37.4077L13.5288 36.4745C13.0201 36.3553 12.5789 36.3014 12.2051 36.3126C11.8169 36.3187 11.4769 36.3993 11.1853 36.5546C10.8984 36.6953 10.6479 36.9225 10.4337 37.2364C10.2195 37.5502 10.0322 37.9554 9.8716 38.4518L9.58826 39.3279L16.6107 41.8744L17.3598 40.6778L17.5759 40.7562L16.1237 45.246L15.9077 45.1677L16.0086 43.736L1.96376 38.6431L1.21464 39.8396L0.998564 39.7613L2.30901 35.7095ZM7.18825 33.6859C6.10788 33.2941 5.18515 33.2858 4.42006 33.6609C3.65497 34.036 3.09534 34.7711 2.74116 35.8662L2.45782 36.7423L9.15611 39.1712L9.43945 38.2951C9.79363 37.2 9.77707 36.256 9.38976 35.463C9.00246 34.67 8.26862 34.0777 7.18825 33.6859Z" fill="#333333"/>
<path d="M21.0159 19.4892C22.1067 20.3854 22.9554 21.2907 23.562 22.2052C24.1668 23.0984 24.5707 23.9653 24.7737 24.8059C24.9748 25.6251 25.0003 26.3892 24.8499 27.0981C24.6878 27.7972 24.3901 28.3949 23.957 28.8913C23.5239 29.3876 22.9654 29.7711 22.2815 30.0416C21.5858 30.3024 20.7999 30.4098 19.9239 30.364C19.0461 30.2968 18.0984 30.0533 17.0806 29.6333C16.061 29.1921 15.0058 28.5234 13.915 27.6272C12.8242 26.7311 11.9764 25.8364 11.3716 24.9432C10.765 24.0286 10.3611 23.1617 10.1599 22.3425C9.95698 21.5019 9.93659 20.7321 10.0988 20.033C10.2491 19.3241 10.5408 18.7215 10.9739 18.2252C11.407 17.7288 11.9714 17.3502 12.6672 17.0895C13.3511 16.8189 14.1319 16.7172 15.0097 16.7844C15.8857 16.8303 16.8335 17.0738 17.853 17.5151C18.8708 17.935 19.9251 18.5931 21.0159 19.4892ZM19.5806 21.1341C18.3594 20.1308 17.2861 19.3779 16.3608 18.8753C15.4336 18.3515 14.6272 18.016 13.9414 17.8687C13.2657 17.71 12.7071 17.697 12.2656 17.8297C11.8241 17.9624 11.4824 18.1673 11.2407 18.4443C10.999 18.7214 10.847 19.0821 10.785 19.5265C10.7229 19.971 10.8232 20.5092 11.0859 21.1413C11.3588 21.7617 11.8328 22.4782 12.5081 23.2906C13.1817 24.0818 14.1291 24.979 15.3503 25.9823C16.5715 26.9856 17.6457 27.7492 18.5729 28.273C19.4982 28.7756 20.2987 29.1063 20.9744 29.265C21.6602 29.4122 22.2239 29.4195 22.6654 29.2868C23.1069 29.154 23.4485 28.9491 23.6902 28.6721C23.932 28.3951 24.0839 28.0343 24.146 27.5899C24.2081 27.1455 24.1027 26.613 23.8299 25.9925C23.5671 25.3605 23.099 24.6489 22.4255 23.8577C21.7501 23.0453 20.8019 22.1374 19.5806 21.1341Z" fill="#333333"/>
<path d="M34.0036 19.6436L35.4037 19.2854L35.5275 19.4797L31.3783 21.6996L31.2545 21.5052L32.2832 20.564L24.1754 7.83476L22.0501 8.97176C22.3967 9.51592 22.6039 10.0826 22.6716 10.6717C22.7393 11.2608 22.705 11.8177 22.5687 12.3422L22.3663 12.4505C22.2725 12.2749 22.1746 12.0928 22.0726 11.9041C21.987 11.7415 21.8974 11.5723 21.8036 11.3966C21.7015 11.208 21.5928 11.023 21.4772 10.8417C21.3204 10.5955 21.1775 10.3853 21.0485 10.2112C20.9112 10.024 20.7905 9.86284 20.6862 9.72754C20.5737 9.57929 20.4735 9.45047 20.3858 9.34108L29.1902 4.63065C29.2375 4.76169 29.3039 4.90856 29.3895 5.07125C29.4668 5.22098 29.5605 5.39663 29.6708 5.59819C29.7864 5.77957 29.9225 5.99335 30.0793 6.23951C30.1948 6.4209 30.3104 6.60228 30.4259 6.78366C30.5467 6.94487 30.6633 7.0996 30.7759 7.24786C30.9049 7.42202 31.0365 7.5861 31.1708 7.74009L30.9684 7.84837C30.403 7.69921 29.8571 7.45279 29.3306 7.10909C28.8041 6.7654 28.3676 6.32148 28.021 5.77733L25.8958 6.91433L34.0036 19.6436Z" fill="#333333"/>
<path d="M45.3825 16.0974L45.3633 15.8677L46.7119 15.5203L45.461 0.592791L44.0546 0.251294L44.0354 0.0216412L48.1678 0.0126864C48.8871 0.0111277 49.514 0.093991 50.0485 0.261276C50.597 0.413218 51.0595 0.634254 51.4358 0.924386C51.811 1.19921 52.0987 1.52781 52.2992 1.9102C52.5136 2.27725 52.6388 2.67512 52.6747 3.10381C52.7029 3.44063 52.6744 3.73929 52.5891 3.9998C52.5191 4.26027 52.4082 4.49021 52.2565 4.68961C52.1189 4.87366 51.9493 5.04247 51.7479 5.19604C51.5605 5.33426 51.3635 5.44954 51.1569 5.54186C50.6711 5.77261 50.1093 5.9193 49.4716 5.98193C50.4283 6.07174 51.2899 6.30722 52.0566 6.68839C52.3922 6.8561 52.7156 7.06213 53.0269 7.30646C53.3522 7.53545 53.6445 7.82577 53.9035 8.1774C54.1767 8.5137 54.4013 8.91135 54.5776 9.37036C54.7678 9.81402 54.8873 10.3268 54.9361 10.9085C54.9964 11.6281 54.9151 12.3021 54.6922 12.9304C54.4693 13.5587 54.1176 14.1107 53.637 14.5865C53.1704 15.0469 52.589 15.4156 51.8927 15.6928C51.1952 15.9546 50.4026 16.0865 49.5149 16.0884L45.3825 16.0974ZM47.8839 6.21507L48.6729 15.6309L49.4764 15.6291C49.9968 15.628 50.4706 15.5274 50.8977 15.3274C51.3249 15.1274 51.6825 14.8281 51.9705 14.4293C52.2739 14.0305 52.493 13.54 52.6279 12.9578C52.7781 12.3756 52.8205 11.6941 52.7551 10.9133C52.6897 10.1324 52.5331 9.45135 52.2854 8.87C52.053 8.28861 51.7517 7.79924 51.3817 7.40191C51.0269 7.00454 50.6192 6.70682 50.1587 6.50874C49.6982 6.31067 49.2077 6.2122 48.6874 6.21333L47.8839 6.21507ZM47.8454 5.75576L48.6489 5.75402C49.3363 5.73722 49.8687 5.51403 50.246 5.08445C50.6374 4.63952 50.7965 3.98072 50.7233 3.10803C50.6502 2.23535 50.3808 1.57747 49.915 1.13441C49.4646 0.691306 48.895 0.470502 48.2063 0.471994L47.4027 0.473735L47.8454 5.75576Z" fill="#333333"/>
<path d="M65.3411 11.8095L63.7981 17.474L65.0213 18.2251L64.9608 18.4473L60.4715 17.0192L60.532 16.7971L61.9367 16.8818L63.4494 11.3284L62.4753 1.36326L61.2521 0.612088L61.3126 0.389952L65.9115 1.85284L65.851 2.07497L64.4463 1.99021L65.3474 11.0874L70.5175 4.16286L69.2453 3.15472L69.3058 2.93258L72.5907 3.9775L72.5302 4.19964L70.9555 4.30218L65.3411 11.8095Z" fill="#333333"/>
<path d="M92.6481 42.7558L92.7148 44.1526L92.4906 44.2021L91.1143 39.6832L91.3384 39.6338L92.0774 40.8821L106.647 37.6665L106.58 36.2697L106.804 36.2203L108.181 40.7391L107.956 40.7885L107.217 39.5402L92.6481 42.7558Z" fill="#333333"/>
<path d="M87.992 30.775L90.1146 34.3399C90.6938 34.0616 91.2985 33.9153 91.9286 33.9012C92.5588 33.8871 93.1553 33.9656 93.7183 34.1366L93.8362 34.3346C93.6412 34.3943 93.4432 34.464 93.2423 34.5436C93.0689 34.6099 92.8818 34.6828 92.6808 34.7624C92.4877 34.8552 92.3016 34.9446 92.1223 35.0308C91.8602 35.1567 91.6258 35.2693 91.4189 35.3687C91.2337 35.4747 91.0692 35.5708 90.9253 35.6569C90.7677 35.7496 90.6347 35.839 90.5263 35.925L85.8684 28.1021L86.0753 28.0027L87.0931 29.0419L100.54 22.5809L100.142 21.2435L100.349 21.1441L102.767 25.2041L102.56 25.3035L101.542 24.2643L87.992 30.775Z" fill="#333333"/>
<g filter="url(#filter0_d_516_9)">
<rect width="22.1342" height="34.5933" rx="3" transform="matrix(0.822041 -0.569428 0.59331 0.804974 18.6339 42.1626)" fill="#E0CAFB"/>
<rect x="0.0707676" y="0.0117773" width="22.0342" height="34.4933" rx="2.95" transform="matrix(0.822041 -0.569428 0.59331 0.804974 18.6395 42.2052)" stroke="#333333" stroke-width="0.1"/>
</g>
<g filter="url(#filter1_d_516_9)">
<path d="M35.9411 46.9994L38.7676 49.1106L41.4893 47.2253L40.5145 50.4154L43.3411 52.5267L39.9121 52.387L38.9373 55.5772L37.7928 52.3007L34.3638 52.1611L37.0855 50.2758L35.9411 46.9994Z" fill="#FFDF2A"/>
<path d="M38.737 49.1499L38.7667 49.1721L41.3982 47.3492L40.4656 50.401L40.4559 50.4339L40.4844 50.4545L43.1822 52.4711L39.9139 52.3376L39.8743 52.3365L39.8633 52.3726L38.9339 55.4139L37.8409 52.2857L37.83 52.2528L37.7948 52.2511L34.5144 52.1176L37.1459 50.2948L37.1339 50.2604L36.0421 47.1372L38.737 49.1499Z" stroke="#333333" stroke-width="0.1"/>
</g>
<g filter="url(#filter2_d_516_9)">
<path d="M25.6163 40.6908L27.2315 41.8972L28.7867 40.8199L28.2297 42.6428L29.8449 43.8492L27.8855 43.7694L27.3284 45.5924L26.6745 43.7201L24.715 43.6404L26.2703 42.563L25.6163 40.6908Z" fill="#FFDF2A"/>
<path d="M27.2303 41.9584L28.6962 40.943L28.1813 42.6284L28.171 42.6605L28.1987 42.6817L29.6863 43.7934L27.8874 43.7202L27.8486 43.7186L27.8368 43.7553L27.3245 45.4294L26.7224 43.7043L26.7107 43.672L26.6761 43.6711L24.8645 43.5972L26.3304 42.5818L26.3183 42.5474L25.7161 40.8271L27.2303 41.9584Z" stroke="#333333" stroke-width="0.1"/>
</g>
<g filter="url(#filter3_d_516_9)">
<path d="M34.1109 35.0522L35.726 36.2587L37.2813 35.1813L36.7243 37.0043L38.3394 38.2107L36.38 38.1309L35.823 39.9538L35.169 38.0816L33.2096 38.0018L34.7648 36.9245L34.1109 35.0522Z" fill="#FFDF2A"/>
<path d="M35.6955 36.2974L35.7252 36.3196L37.1911 35.3042L36.6754 36.9902L36.6651 37.0222L36.6936 37.0428L38.1798 38.1543L36.3815 38.082L36.3427 38.0803L36.3317 38.1164L35.8189 39.7898L35.2165 38.066L35.2057 38.0332L35.171 38.0322L33.3586 37.9589L34.8245 36.9435L34.8125 36.9091L34.2122 35.1898L35.6955 36.2974Z" stroke="#333333" stroke-width="0.1"/>
</g>
<g filter="url(#filter4_d_516_9)">
<path d="M37.1103 56.2849L38.6821 55.8388L40.2807 56.414L41.2955 57.7909L41.3388 59.4434L40.3942 60.7404L38.8224 61.1865L37.2238 60.6113L36.209 59.2345L36.1656 57.582L37.1103 56.2849Z" fill="#FFDF2A"/>
<path d="M38.6813 55.8902L40.2479 56.4544L41.2451 57.8072L41.288 59.4269L40.3621 60.6977L38.8219 61.1352L37.2561 60.5704L36.2589 59.2175L36.2152 57.5985L37.1406 56.3269L38.6813 55.8902Z" stroke="#333333" stroke-width="0.1"/>
</g>
<g filter="url(#filter5_d_516_9)">
<path d="M29.4721 48.1154L30.258 47.8923L31.0573 48.1799L31.5647 48.8684L31.5864 49.6946L31.1141 50.3431L30.3282 50.5662L29.5289 50.2786L29.0215 49.5902L28.9998 48.7639L29.4721 48.1154Z" fill="#FFDF2A"/>
<path d="M30.2561 47.944L31.0248 48.2202L31.5144 48.8844L31.5349 49.6789L31.0821 50.3001L30.3299 50.5136L29.5593 50.2364L29.072 49.5753L29.0512 48.7787L29.5026 48.1572L30.2561 47.944Z" stroke="#333333" stroke-width="0.1"/>
</g>
<g filter="url(#filter6_d_516_9)">
<path d="M48.1358 53.6953L49.751 54.9017L51.3062 53.8244L50.7492 55.6474L52.3644 56.8538L50.4049 56.774L49.8479 58.5969L49.1939 56.7247L47.2345 56.6449L48.7898 55.5676L48.1358 53.6953Z" fill="#E9FF61"/>
<path d="M49.7498 54.9629L51.2156 53.9475L50.7008 55.633L50.6904 55.665L50.7182 55.6862L52.2057 56.7979L50.4068 56.7248L50.368 56.7231L50.3563 56.7598L49.844 58.4339L49.2419 56.7088L49.2302 56.6765L49.1956 56.6756L47.384 56.6017L48.8498 55.5863L48.8378 55.5519L48.2356 53.8316L49.7498 54.9629Z" stroke="#333333" stroke-width="0.1"/>
</g>
<g filter="url(#filter7_d_516_9)">
<path d="M42.8875 42.1877L44.5027 43.3941L46.0579 42.3168L45.5009 44.1397L47.1161 45.3462L45.1566 45.2664L44.5996 47.0893L43.9456 45.2171L41.9862 45.1373L43.5415 44.06L42.8875 42.1877Z" fill="#E9FF61"/>
<path d="M44.5015 43.4553L45.9673 42.4399L45.4525 44.1253L45.4422 44.1574L45.4699 44.1786L46.9575 45.2903L45.1585 45.2172L45.1198 45.2155L45.108 45.2522L44.5957 46.9263L43.9936 45.2012L43.9819 45.1689L43.9473 45.168L42.1357 45.0941L43.6016 44.0787L43.5895 44.0443L42.9873 42.324L44.5015 43.4553Z" stroke="#333333" stroke-width="0.1"/>
</g>
<g filter="url(#filter8_d_516_9)">
<path d="M32.3605 41.0668L33.9757 42.2732L35.5309 41.1959L34.9739 43.0188L36.5891 44.2252L34.6297 44.1454L34.0726 45.9684L33.4187 44.0961L31.4592 44.0163L33.0145 42.939L32.3605 41.0668Z" fill="#FFDF2A"/>
<path d="M33.9745 42.3344L35.4404 41.319L34.9255 43.0044L34.9152 43.0365L34.9429 43.0577L36.4305 44.1694L34.6316 44.0962L34.5928 44.0946L34.581 44.1313L34.0687 45.8054L33.4666 44.0803L33.4549 44.048L33.4203 44.0471L31.6087 43.9732L33.0746 42.9578L33.0625 42.9234L32.4603 41.2031L33.9745 42.3344Z" stroke="#333333" stroke-width="0.1"/>
</g>
<g filter="url(#filter9_d_516_9)">
<rect x="43.1187" y="26.1857" width="22.6255" height="33.4418" rx="3" fill="#E0CAFB"/>
<rect x="43.1687" y="26.2357" width="22.5254" height="33.3418" rx="2.95" stroke="#333333" stroke-width="0.1"/>
</g>
<g filter="url(#filter10_d_516_9)">
<path d="M54.4315 39.5624L55.4773 42.7975L58.8617 42.7975L56.1237 44.7969L57.1695 48.0319L54.4315 46.0326L51.6935 48.0319L52.7393 44.7969L50.0013 42.7975L53.3857 42.7975L54.4315 39.5624Z" fill="#FFDF2A"/>
<path d="M55.4296 42.8124L55.4413 42.8475H58.7079L56.0946 44.7567L56.0653 44.7782L56.076 44.8124L57.0741 47.8993L54.4608 45.9921L54.4315 45.9706L54.4022 45.9921L51.788 47.8993L52.787 44.8124L52.7977 44.7782L52.7684 44.7567L50.1552 42.8475H53.4218L53.4335 42.8124L54.4315 39.7255L55.4296 42.8124Z" stroke="#333333" stroke-width="0.1"/>
</g>
<g filter="url(#filter11_d_516_9)">
<path d="M49.7598 28.861L50.3574 30.7096L52.2913 30.7096L50.7267 31.8521L51.3244 33.7008L49.7598 32.5583L48.1952 33.7008L48.7928 31.8521L47.2282 30.7096L49.1622 30.7096L49.7598 28.861Z" fill="#FFDF2A"/>
<path d="M50.3099 30.7253L50.3206 30.7595H52.139L50.6976 31.8122L50.6683 31.8327L50.679 31.8679L51.2288 33.569L49.7894 32.5182L49.7601 32.4968L49.7308 32.5182L48.2894 33.569L48.8401 31.8679L48.8519 31.8327L48.8226 31.8122L47.3812 30.7595H49.1985L49.2093 30.7253L49.7591 29.0231L50.3099 30.7253Z" stroke="#333333" stroke-width="0.1"/>
</g>
<g filter="url(#filter12_d_516_9)">
<path d="M60.1737 29.0562L60.7713 30.9048H62.7053L61.1407 32.0473L61.7383 33.8959L60.1737 32.7534L58.6091 33.8959L59.2068 32.0473L57.6422 30.9048H59.5761L60.1737 29.0562Z" fill="#FFDF2A"/>
<path d="M60.7242 30.9205L60.735 30.9546H62.5523L61.1109 32.0074L61.0816 32.0279L61.0934 32.063L61.6432 33.7642L60.2027 32.7134L60.1734 32.6919L60.1441 32.7134L58.7037 33.7642L59.2545 32.063L59.2652 32.0279L59.2359 32.0074L57.7945 30.9546H59.6129L59.6236 30.9205L60.1734 29.2183L60.7242 30.9205Z" stroke="#333333" stroke-width="0.1"/>
</g>
<g filter="url(#filter13_d_516_9)">
<path d="M49.7598 47.5884L51.3244 48.0994L52.2913 49.437V51.0905L51.3244 52.4282L49.7598 52.9391L48.1952 52.4282L47.2282 51.0905V49.437L48.1952 48.0994L49.7598 47.5884Z" fill="#FFDF2A"/>
<path d="M51.2923 48.1412L52.2415 49.4527V51.0738L51.2923 52.3853L49.7591 52.8853L48.2259 52.3853L47.2786 51.0738V49.4527L48.2259 48.1412L49.7591 47.6412L51.2923 48.1412Z" stroke="#333333" stroke-width="0.1"/>
</g>
<g filter="url(#filter14_d_516_9)">
<path d="M48.4289 36.887L49.2112 37.1425L49.6946 37.8113V38.6381L49.2112 39.3069L48.4289 39.5624L47.6466 39.3069L47.1631 38.6381V37.8113L47.6466 37.1425L48.4289 36.887Z" fill="#FFDF2A"/>
<path d="M49.179 37.1839L49.6448 37.8265V38.6214L49.179 39.264L48.429 39.5091L47.6761 39.263L47.2132 38.6214V37.8265L47.6771 37.1839L48.429 36.9398L49.179 37.1839Z" stroke="#333333" stroke-width="0.1"/>
</g>
<g filter="url(#filter15_d_516_9)">
<path d="M60.4072 51.6015L61.0049 53.4501L62.9388 53.4501L61.3742 54.5926L61.9718 56.4412L60.4072 55.2987L58.8427 56.4412L59.4403 54.5926L57.8757 53.4501L59.8096 53.4501L60.4072 51.6015Z" fill="#E9FF61"/>
<path d="M60.9573 53.4657L60.9681 53.4999H62.7864L61.345 54.5526L61.3157 54.5731L61.3265 54.6083L61.8763 56.3095L60.4368 55.2587L60.4075 55.2372L60.3782 55.2587L58.9368 56.3095L59.4876 54.6083L59.4993 54.5731L59.47 54.5526L58.0286 53.4999H59.846L59.8568 53.4657L60.4066 51.7636L60.9573 53.4657Z" stroke="#333333" stroke-width="0.1"/>
</g>
<g filter="url(#filter16_d_516_9)">
<path d="M63.069 39.5624L63.6666 41.411L65.6005 41.411L64.0359 42.5535L64.6335 44.4021L63.069 43.2596L61.5044 44.4021L62.102 42.5535L60.5374 41.411L62.4713 41.411L63.069 39.5624Z" fill="#FFDF2A"/>
<path d="M63.619 41.4267L63.6298 41.4608H65.4482L64.0067 42.5136L63.9774 42.5341L63.9882 42.5692L64.538 44.2704L63.0985 43.2196L63.0692 43.1981L63.0399 43.2196L61.5985 44.2704L62.1493 42.5692L62.161 42.5341L62.1317 42.5136L60.6903 41.4608H62.5077L62.5185 41.4267L63.0683 39.7245L63.619 41.4267Z" stroke="#333333" stroke-width="0.1"/>
</g>
<g filter="url(#filter17_d_516_9)">
<path d="M55.0835 32.874L55.6811 34.7227L57.615 34.7227L56.0505 35.8652L56.6481 37.7138L55.0835 36.5713L53.5189 37.7138L54.1165 35.8652L52.552 34.7227L54.4859 34.7227L55.0835 32.874Z" fill="#FFDF2A"/>
<path d="M55.6336 34.7383L55.6443 34.7725H57.4627L56.0213 35.8252L55.992 35.8457L56.0027 35.8809L56.5526 37.582L55.1131 36.5313L55.0838 36.5098L55.0545 36.5313L53.6131 37.582L54.1639 35.8809L54.1756 35.8457L54.1463 35.8252L52.7049 34.7725H54.5223L54.533 34.7383L55.0828 33.0361L55.6336 34.7383Z" stroke="#333333" stroke-width="0.1"/>
</g>
<g filter="url(#filter18_d_516_9)">
<rect width="22.3324" height="33.8909" rx="3" transform="matrix(0.887943 0.459954 -0.481742 0.876313 71.671 29.5588)" fill="#E0CAFB"/>
<rect x="0.02031" y="0.0668133" width="22.2324" height="33.7909" rx="2.95" transform="matrix(0.887943 0.459954 -0.481742 0.876313 71.7054 29.5577)" stroke="#333333" stroke-width="0.1"/>
</g>
<g filter="url(#filter19_d_516_9)">
<path d="M75.0554 46.5744L74.3926 49.9222L77.3588 51.4587L73.983 51.9913L73.3202 55.3391L71.8966 52.3204L68.5207 52.853L71.0167 50.4548L69.5932 47.4361L72.5594 48.9726L75.0554 46.5744Z" fill="#FFDF2A"/>
<path d="M74.3424 49.9136L74.3364 49.9489L77.2014 51.433L73.9758 51.9424L73.9403 51.9482L73.9338 51.9822L73.301 55.1782L71.9428 52.2988L71.9267 52.2652L71.889 52.2709L68.6701 52.7783L71.0523 50.4896L71.0779 50.4655L71.0631 50.4336L69.7024 47.5485L72.5683 49.0331L72.5943 49.008L74.9752 46.7198L74.3424 49.9136Z" stroke="#333333" stroke-width="0.1"/>
</g>
<g filter="url(#filter20_d_516_9)">
<path d="M76.1854 34.9498L75.8066 36.8629L77.5016 37.7409L75.5726 38.0452L75.1938 39.9582L74.3803 38.2333L72.4513 38.5376L73.8776 37.1672L73.0641 35.4422L74.7591 36.3202L76.1854 34.9498Z" fill="#FFDF2A"/>
<path d="M75.7573 36.8545L75.7499 36.8902L77.3428 37.7153L75.5652 37.9963L75.5297 38.0021L75.5233 38.0361L75.1746 39.7971L74.4261 38.2121L74.41 38.1785L74.3732 38.1847L72.6001 38.4635L73.913 37.202L73.9385 37.1778L73.9237 37.146L73.1737 35.5557L74.7674 36.3813L74.7939 36.3554L76.1055 35.0943L75.7573 36.8545Z" stroke="#333333" stroke-width="0.1"/>
</g>
<g filter="url(#filter21_d_516_9)">
<path d="M85.217 39.8509L84.8382 41.764L86.5332 42.642L84.6042 42.9463L84.2254 44.8593L83.4119 43.1344L81.4829 43.4387L82.9092 42.0683L82.0957 40.3433L83.7907 41.2213L85.217 39.8509Z" fill="#FFDF2A"/>
<path d="M84.7886 41.7554L84.7812 41.7912L86.375 42.6167L84.5965 42.8972L84.561 42.903L84.5546 42.937L84.205 44.6976L83.4574 43.113L83.4422 43.0799L83.4045 43.0856L81.6305 43.364L82.9443 42.1029L82.9699 42.0788L82.9551 42.0469L82.2058 40.4571L83.7988 41.2822L83.8261 41.2568L85.1372 39.9965L84.7886 41.7554Z" stroke="#333333" stroke-width="0.1"/>
</g>
<g filter="url(#filter22_d_516_9)">
<path d="M67.0425 51.5813L68.1643 52.7454L68.3587 54.3723L67.5515 55.8407L66.0509 56.5897L64.4302 56.3331L63.3084 55.1691L63.114 53.5421L63.9212 52.0737L65.4218 51.3247L67.0425 51.5813Z" fill="#FFDF2A"/>
<path d="M68.1157 52.7672L68.3066 54.3636L67.5153 55.803L66.0429 56.5378L64.4556 56.2862L63.3566 55.1462L63.1666 53.5504L63.9579 52.111L65.4294 51.3757L67.0167 51.6273L68.1157 52.7672Z" stroke="#333333" stroke-width="0.1"/>
</g>
<g filter="url(#filter23_d_516_9)">
<path d="M71.1005 41.4734L71.6614 42.0554L71.7586 42.8689L71.355 43.6031L70.6047 43.9776L69.7943 43.8493L69.2334 43.2672L69.1362 42.4538L69.5398 41.7196L70.2901 41.3451L71.1005 41.4734Z" fill="#FFDF2A"/>
<path d="M71.6127 42.0773L71.7069 42.8584L71.3174 43.567L70.5965 43.9258L69.8197 43.8027L69.2811 43.2444L69.1886 42.4621L69.5763 41.7569L70.2972 41.3959L71.0749 41.5195L71.6127 42.0773Z" stroke="#333333" stroke-width="0.1"/>
</g>
<g filter="url(#filter24_d_516_9)">
<path d="M74.4152 59.979L74.0364 61.8921L75.7314 62.7701L73.8024 63.0744L73.4236 64.9874L72.6101 63.2625L70.6811 63.5668L72.1074 62.1964L71.2939 60.4714L72.9889 61.3494L74.4152 59.979Z" fill="#FFDF2A"/>
<path d="M73.9871 61.8836L73.9797 61.9194L75.5726 62.7445L73.795 63.0254L73.7595 63.0312L73.7531 63.0653L73.4044 64.8263L72.6559 63.2413L72.6398 63.2077L72.603 63.2139L70.8299 63.4927L72.1428 62.2312L72.1683 62.207L72.1535 62.1752L71.4035 60.5849L72.9972 61.4105L73.0237 61.3846L74.3353 60.1235L73.9871 61.8836Z" stroke="#333333" stroke-width="0.1"/>
</g>
<g filter="url(#filter25_d_516_9)">
<path d="M82.6257 50.4958L82.2469 52.4088L83.9419 53.2868L82.0129 53.5912L81.6341 55.5042L80.8207 53.7793L78.8916 54.0836L80.3179 52.7132L79.5044 50.9882L81.1994 51.8662L82.6257 50.4958Z" fill="#FFDF2A"/>
<path d="M82.1976 52.4004L82.1902 52.4362L83.7831 53.2613L82.0055 53.5422L81.97 53.548L81.9636 53.5821L81.6149 55.3431L80.8664 53.7581L80.8503 53.7245L80.8135 53.7307L79.0404 54.0095L80.3533 52.748L80.3788 52.7238L80.364 52.6919L79.614 51.1017L81.2078 51.9273L81.2342 51.9014L82.5458 50.6403L82.1976 52.4004Z" stroke="#333333" stroke-width="0.1"/>
</g>
<g filter="url(#filter26_d_516_9)">
<path d="M78.8919 40.9306L78.5132 42.8437L80.2082 43.7217L78.2791 44.026L77.9004 45.939L77.0869 44.2141L75.1578 44.5184L76.5841 43.148L75.7707 41.423L77.4656 42.301L78.8919 40.9306Z" fill="#FFDF2A"/>
<path d="M78.4638 42.8353L78.4564 42.871L80.0494 43.6961L78.2718 43.977L78.2363 43.9829L78.2298 44.0169L77.8811 45.7779L77.1326 44.1929L77.1166 44.1593L77.0797 44.1655L75.3066 44.4443L76.6195 43.1828L76.6451 43.1586L76.6303 43.1268L75.8802 41.5365L77.474 42.3621L77.5005 42.3362L78.8121 41.0751L78.4638 42.8353Z" stroke="#333333" stroke-width="0.1"/>
</g>
<path d="M82.5182 24.4032C83.0115 23.9893 83.5534 23.7047 84.1438 23.5496C84.7342 23.3944 85.3103 23.3414 85.8719 23.3906L86.0198 23.5668C85.8473 23.6714 85.674 23.7868 85.4997 23.9131C85.3489 24.0196 85.1863 24.136 85.012 24.2622C84.8476 24.4002 84.689 24.5333 84.5363 24.6614C84.3131 24.8487 84.1135 25.0162 83.9373 25.1641C83.7827 25.3138 83.6457 25.4487 83.5264 25.5689C83.3953 25.6989 83.2867 25.82 83.2007 25.9322L77.0653 18.6203L77.2415 18.4725L78.3928 19.3079L89.8452 9.6982L89.2224 8.4193L89.3986 8.27146L95.3862 15.4072C95.2608 15.4724 95.1226 15.5582 94.9718 15.6648C94.8328 15.7614 94.6702 15.8778 94.4842 16.0139C94.3197 16.1519 94.1259 16.3145 93.9027 16.5018C93.7383 16.6398 93.5739 16.7778 93.4094 16.9158C93.2666 17.0556 93.1296 17.1906 92.9985 17.3206C92.8439 17.4703 92.7001 17.621 92.5671 17.7726L92.4193 17.5964C92.4684 17.0348 92.6207 16.4767 92.876 15.9222C93.1313 15.3677 93.5056 14.8835 93.9989 14.4695L91.1899 11.1219L85.9042 15.5571L87.3087 17.2309L89.5597 16.6932L89.7076 16.8694L86.1838 19.8262L86.0359 19.65L86.9563 17.5266L85.5518 15.8528L79.5614 20.8794L82.5182 24.4032Z" fill="black"/>
<path d="M105.995 58.4289L106.748 57.0152L106.976 57.0432L106.556 60.4675L106.328 60.4394L105.939 58.8855L90.53 56.9935L90.572 56.6511L105.793 50.6412L92.5523 49.0155L91.7994 50.4293L91.5711 50.4012L91.9916 46.9769L92.2198 47.005L92.6084 48.5589L107.105 50.3388L107.743 48.911L107.972 48.939L107.593 52.0209L94.8093 57.0555L105.995 58.4289Z" fill="black"/>
<path d="M91.6245 68.9857L93.5423 64.6784L90.4381 62.0375L89.3047 63.1693L89.0946 63.0758L90.4979 59.9241L90.708 60.0176L90.6252 61.6172L103.089 72.0758L102.948 72.391L86.486 70.3485L85.6095 71.4689L85.3994 71.3754L87.3639 66.9629L87.5741 67.0565L87.3279 68.4575L91.6245 68.9857ZM93.8947 64.9612L92.0799 69.0374L99.9702 70.0328L93.8947 64.9612Z" fill="black"/>
<defs>
<filter id="filter0_d_516_9" x="15.8383" y="30.7237" width="44.3108" height="46.1207" filterUnits="userSpaceOnUse" color-interpolation-filters="sRGB">
<feFlood flood-opacity="0" result="BackgroundImageFix"/>
<feColorMatrix in="SourceAlpha" type="matrix" values="0 0 0 0 0 0 0 0 0 0 0 0 0 0 0 0 0 0 127 0" result="hardAlpha"/>
<feOffset dy="4"/>
<feGaussianBlur stdDeviation="2"/>
<feComposite in2="hardAlpha" operator="out"/>
<feColorMatrix type="matrix" values="0 0 0 0 0 0 0 0 0 0 0 0 0 0 0 0 0 0 0.25 0"/>
<feBlend mode="normal" in2="BackgroundImageFix" result="effect1_dropShadow_516_9"/>
<feBlend mode="normal" in="SourceGraphic" in2="effect1_dropShadow_516_9" result="shape"/>
</filter>
<filter id="filter1_d_516_9" x="30.3638" y="46.9994" width="16.9772" height="16.5778" filterUnits="userSpaceOnUse" color-interpolation-filters="sRGB">
<feFlood flood-opacity="0" result="BackgroundImageFix"/>
<feColorMatrix in="SourceAlpha" type="matrix" values="0 0 0 0 0 0 0 0 0 0 0 0 0 0 0 0 0 0 127 0" result="hardAlpha"/>
<feOffset dy="4"/>
<feGaussianBlur stdDeviation="2"/>
<feComposite in2="hardAlpha" operator="out"/>
<feColorMatrix type="matrix" values="0 0 0 0 0 0 0 0 0 0 0 0 0 0 0 0 0 0 0.25 0"/>
<feBlend mode="normal" in2="BackgroundImageFix" result="effect1_dropShadow_516_9"/>
<feBlend mode="normal" in="SourceGraphic" in2="effect1_dropShadow_516_9" result="shape"/>
</filter>
<filter id="filter2_d_516_9" x="20.715" y="40.6908" width="13.1299" height="12.9016" filterUnits="userSpaceOnUse" color-interpolation-filters="sRGB">
<feFlood flood-opacity="0" result="BackgroundImageFix"/>
<feColorMatrix in="SourceAlpha" type="matrix" values="0 0 0 0 0 0 0 0 0 0 0 0 0 0 0 0 0 0 127 0" result="hardAlpha"/>
<feOffset dy="4"/>
<feGaussianBlur stdDeviation="2"/>
<feComposite in2="hardAlpha" operator="out"/>
<feColorMatrix type="matrix" values="0 0 0 0 0 0 0 0 0 0 0 0 0 0 0 0 0 0 0.25 0"/>
<feBlend mode="normal" in2="BackgroundImageFix" result="effect1_dropShadow_516_9"/>
<feBlend mode="normal" in="SourceGraphic" in2="effect1_dropShadow_516_9" result="shape"/>
</filter>
<filter id="filter3_d_516_9" x="29.2096" y="35.0522" width="13.1298" height="12.9016" filterUnits="userSpaceOnUse" color-interpolation-filters="sRGB">
<feFlood flood-opacity="0" result="BackgroundImageFix"/>
<feColorMatrix in="SourceAlpha" type="matrix" values="0 0 0 0 0 0 0 0 0 0 0 0 0 0 0 0 0 0 127 0" result="hardAlpha"/>
<feOffset dy="4"/>
<feGaussianBlur stdDeviation="2"/>
<feComposite in2="hardAlpha" operator="out"/>
<feColorMatrix type="matrix" values="0 0 0 0 0 0 0 0 0 0 0 0 0 0 0 0 0 0 0.25 0"/>
<feBlend mode="normal" in2="BackgroundImageFix" result="effect1_dropShadow_516_9"/>
<feBlend mode="normal" in="SourceGraphic" in2="effect1_dropShadow_516_9" result="shape"/>
</filter>
<filter id="filter4_d_516_9" x="32.1656" y="55.8388" width="13.1732" height="13.3477" filterUnits="userSpaceOnUse" color-interpolation-filters="sRGB">
<feFlood flood-opacity="0" result="BackgroundImageFix"/>
<feColorMatrix in="SourceAlpha" type="matrix" values="0 0 0 0 0 0 0 0 0 0 0 0 0 0 0 0 0 0 127 0" result="hardAlpha"/>
<feOffset dy="4"/>
<feGaussianBlur stdDeviation="2"/>
<feComposite in2="hardAlpha" operator="out"/>
<feColorMatrix type="matrix" values="0 0 0 0 0 0 0 0 0 0 0 0 0 0 0 0 0 0 0.25 0"/>
<feBlend mode="normal" in2="BackgroundImageFix" result="effect1_dropShadow_516_9"/>
<feBlend mode="normal" in="SourceGraphic" in2="effect1_dropShadow_516_9" result="shape"/>
</filter>
<filter id="filter5_d_516_9" x="24.9998" y="47.8923" width="10.5866" height="10.6739" filterUnits="userSpaceOnUse" color-interpolation-filters="sRGB">
<feFlood flood-opacity="0" result="BackgroundImageFix"/>
<feColorMatrix in="SourceAlpha" type="matrix" values="0 0 0 0 0 0 0 0 0 0 0 0 0 0 0 0 0 0 127 0" result="hardAlpha"/>
<feOffset dy="4"/>
<feGaussianBlur stdDeviation="2"/>
<feComposite in2="hardAlpha" operator="out"/>
<feColorMatrix type="matrix" values="0 0 0 0 0 0 0 0 0 0 0 0 0 0 0 0 0 0 0.25 0"/>
<feBlend mode="normal" in2="BackgroundImageFix" result="effect1_dropShadow_516_9"/>
<feBlend mode="normal" in="SourceGraphic" in2="effect1_dropShadow_516_9" result="shape"/>
</filter>
<filter id="filter6_d_516_9" x="43.2345" y="53.6953" width="13.1299" height="12.9016" filterUnits="userSpaceOnUse" color-interpolation-filters="sRGB">
<feFlood flood-opacity="0" result="BackgroundImageFix"/>
<feColorMatrix in="SourceAlpha" type="matrix" values="0 0 0 0 0 0 0 0 0 0 0 0 0 0 0 0 0 0 127 0" result="hardAlpha"/>
<feOffset dy="4"/>
<feGaussianBlur stdDeviation="2"/>
<feComposite in2="hardAlpha" operator="out"/>
<feColorMatrix type="matrix" values="0 0 0 0 0 0 0 0 0 0 0 0 0 0 0 0 0 0 0.25 0"/>
<feBlend mode="normal" in2="BackgroundImageFix" result="effect1_dropShadow_516_9"/>
<feBlend mode="normal" in="SourceGraphic" in2="effect1_dropShadow_516_9" result="shape"/>
</filter>
<filter id="filter7_d_516_9" x="37.9862" y="42.1877" width="13.1299" height="12.9016" filterUnits="userSpaceOnUse" color-interpolation-filters="sRGB">
<feFlood flood-opacity="0" result="BackgroundImageFix"/>
<feColorMatrix in="SourceAlpha" type="matrix" values="0 0 0 0 0 0 0 0 0 0 0 0 0 0 0 0 0 0 127 0" result="hardAlpha"/>
<feOffset dy="4"/>
<feGaussianBlur stdDeviation="2"/>
<feComposite in2="hardAlpha" operator="out"/>
<feColorMatrix type="matrix" values="0 0 0 0 0 0 0 0 0 0 0 0 0 0 0 0 0 0 0.25 0"/>
<feBlend mode="normal" in2="BackgroundImageFix" result="effect1_dropShadow_516_9"/>
<feBlend mode="normal" in="SourceGraphic" in2="effect1_dropShadow_516_9" result="shape"/>
</filter>
<filter id="filter8_d_516_9" x="27.4592" y="41.0668" width="13.1299" height="12.9016" filterUnits="userSpaceOnUse" color-interpolation-filters="sRGB">
<feFlood flood-opacity="0" result="BackgroundImageFix"/>
<feColorMatrix in="SourceAlpha" type="matrix" values="0 0 0 0 0 0 0 0 0 0 0 0 0 0 0 0 0 0 127 0" result="hardAlpha"/>
<feOffset dy="4"/>
<feGaussianBlur stdDeviation="2"/>
<feComposite in2="hardAlpha" operator="out"/>
<feColorMatrix type="matrix" values="0 0 0 0 0 0 0 0 0 0 0 0 0 0 0 0 0 0 0.25 0"/>
<feBlend mode="normal" in2="BackgroundImageFix" result="effect1_dropShadow_516_9"/>
<feBlend mode="normal" in="SourceGraphic" in2="effect1_dropShadow_516_9" result="shape"/>
</filter>
<filter id="filter9_d_516_9" x="39.1187" y="26.1857" width="30.6255" height="41.4418" filterUnits="userSpaceOnUse" color-interpolation-filters="sRGB">
<feFlood flood-opacity="0" result="BackgroundImageFix"/>
<feColorMatrix in="SourceAlpha" type="matrix" values="0 0 0 0 0 0 0 0 0 0 0 0 0 0 0 0 0 0 127 0" result="hardAlpha"/>
<feOffset dy="4"/>
<feGaussianBlur stdDeviation="2"/>
<feComposite in2="hardAlpha" operator="out"/>
<feColorMatrix type="matrix" values="0 0 0 0 0 0 0 0 0 0 0 0 0 0 0 0 0 0 0.25 0"/>
<feBlend mode="normal" in2="BackgroundImageFix" result="effect1_dropShadow_516_9"/>
<feBlend mode="normal" in="SourceGraphic" in2="effect1_dropShadow_516_9" result="shape"/>
</filter>
<filter id="filter10_d_516_9" x="46.0013" y="39.5624" width="16.8604" height="16.4696" filterUnits="userSpaceOnUse" color-interpolation-filters="sRGB">
<feFlood flood-opacity="0" result="BackgroundImageFix"/>
<feColorMatrix in="SourceAlpha" type="matrix" values="0 0 0 0 0 0 0 0 0 0 0 0 0 0 0 0 0 0 127 0" result="hardAlpha"/>
<feOffset dy="4"/>
<feGaussianBlur stdDeviation="2"/>
<feComposite in2="hardAlpha" operator="out"/>
<feColorMatrix type="matrix" values="0 0 0 0 0 0 0 0 0 0 0 0 0 0 0 0 0 0 0.25 0"/>
<feBlend mode="normal" in2="BackgroundImageFix" result="effect1_dropShadow_516_9"/>
<feBlend mode="normal" in="SourceGraphic" in2="effect1_dropShadow_516_9" result="shape"/>
</filter>
<filter id="filter11_d_516_9" x="43.2282" y="28.861" width="13.0631" height="12.8397" filterUnits="userSpaceOnUse" color-interpolation-filters="sRGB">
<feFlood flood-opacity="0" result="BackgroundImageFix"/>
<feColorMatrix in="SourceAlpha" type="matrix" values="0 0 0 0 0 0 0 0 0 0 0 0 0 0 0 0 0 0 127 0" result="hardAlpha"/>
<feOffset dy="4"/>
<feGaussianBlur stdDeviation="2"/>
<feComposite in2="hardAlpha" operator="out"/>
<feColorMatrix type="matrix" values="0 0 0 0 0 0 0 0 0 0 0 0 0 0 0 0 0 0 0.25 0"/>
<feBlend mode="normal" in2="BackgroundImageFix" result="effect1_dropShadow_516_9"/>
<feBlend mode="normal" in="SourceGraphic" in2="effect1_dropShadow_516_9" result="shape"/>
</filter>
<filter id="filter12_d_516_9" x="53.6422" y="29.0562" width="13.0631" height="12.8397" filterUnits="userSpaceOnUse" color-interpolation-filters="sRGB">
<feFlood flood-opacity="0" result="BackgroundImageFix"/>
<feColorMatrix in="SourceAlpha" type="matrix" values="0 0 0 0 0 0 0 0 0 0 0 0 0 0 0 0 0 0 127 0" result="hardAlpha"/>
<feOffset dy="4"/>
<feGaussianBlur stdDeviation="2"/>
<feComposite in2="hardAlpha" operator="out"/>
<feColorMatrix type="matrix" values="0 0 0 0 0 0 0 0 0 0 0 0 0 0 0 0 0 0 0.25 0"/>
<feBlend mode="normal" in2="BackgroundImageFix" result="effect1_dropShadow_516_9"/>
<feBlend mode="normal" in="SourceGraphic" in2="effect1_dropShadow_516_9" result="shape"/>
</filter>
<filter id="filter13_d_516_9" x="43.2282" y="47.5884" width="13.0631" height="13.3507" filterUnits="userSpaceOnUse" color-interpolation-filters="sRGB">
<feFlood flood-opacity="0" result="BackgroundImageFix"/>
<feColorMatrix in="SourceAlpha" type="matrix" values="0 0 0 0 0 0 0 0 0 0 0 0 0 0 0 0 0 0 127 0" result="hardAlpha"/>
<feOffset dy="4"/>
<feGaussianBlur stdDeviation="2"/>
<feComposite in2="hardAlpha" operator="out"/>
<feColorMatrix type="matrix" values="0 0 0 0 0 0 0 0 0 0 0 0 0 0 0 0 0 0 0.25 0"/>
<feBlend mode="normal" in2="BackgroundImageFix" result="effect1_dropShadow_516_9"/>
<feBlend mode="normal" in="SourceGraphic" in2="effect1_dropShadow_516_9" result="shape"/>
</filter>
<filter id="filter14_d_516_9" x="43.1631" y="36.887" width="10.5316" height="10.6753" filterUnits="userSpaceOnUse" color-interpolation-filters="sRGB">
<feFlood flood-opacity="0" result="BackgroundImageFix"/>
<feColorMatrix in="SourceAlpha" type="matrix" values="0 0 0 0 0 0 0 0 0 0 0 0 0 0 0 0 0 0 127 0" result="hardAlpha"/>
<feOffset dy="4"/>
<feGaussianBlur stdDeviation="2"/>
<feComposite in2="hardAlpha" operator="out"/>
<feColorMatrix type="matrix" values="0 0 0 0 0 0 0 0 0 0 0 0 0 0 0 0 0 0 0.25 0"/>
<feBlend mode="normal" in2="BackgroundImageFix" result="effect1_dropShadow_516_9"/>
<feBlend mode="normal" in="SourceGraphic" in2="effect1_dropShadow_516_9" result="shape"/>
</filter>
<filter id="filter15_d_516_9" x="53.8757" y="51.6015" width="13.0631" height="12.8397" filterUnits="userSpaceOnUse" color-interpolation-filters="sRGB">
<feFlood flood-opacity="0" result="BackgroundImageFix"/>
<feColorMatrix in="SourceAlpha" type="matrix" values="0 0 0 0 0 0 0 0 0 0 0 0 0 0 0 0 0 0 127 0" result="hardAlpha"/>
<feOffset dy="4"/>
<feGaussianBlur stdDeviation="2"/>
<feComposite in2="hardAlpha" operator="out"/>
<feColorMatrix type="matrix" values="0 0 0 0 0 0 0 0 0 0 0 0 0 0 0 0 0 0 0.25 0"/>
<feBlend mode="normal" in2="BackgroundImageFix" result="effect1_dropShadow_516_9"/>
<feBlend mode="normal" in="SourceGraphic" in2="effect1_dropShadow_516_9" result="shape"/>
</filter>
<filter id="filter16_d_516_9" x="56.5374" y="39.5624" width="13.0631" height="12.8397" filterUnits="userSpaceOnUse" color-interpolation-filters="sRGB">
<feFlood flood-opacity="0" result="BackgroundImageFix"/>
<feColorMatrix in="SourceAlpha" type="matrix" values="0 0 0 0 0 0 0 0 0 0 0 0 0 0 0 0 0 0 127 0" result="hardAlpha"/>
<feOffset dy="4"/>
<feGaussianBlur stdDeviation="2"/>
<feComposite in2="hardAlpha" operator="out"/>
<feColorMatrix type="matrix" values="0 0 0 0 0 0 0 0 0 0 0 0 0 0 0 0 0 0 0.25 0"/>
<feBlend mode="normal" in2="BackgroundImageFix" result="effect1_dropShadow_516_9"/>
<feBlend mode="normal" in="SourceGraphic" in2="effect1_dropShadow_516_9" result="shape"/>
</filter>
<filter id="filter17_d_516_9" x="48.5519" y="32.874" width="13.0631" height="12.8397" filterUnits="userSpaceOnUse" color-interpolation-filters="sRGB">
<feFlood flood-opacity="0" result="BackgroundImageFix"/>
<feColorMatrix in="SourceAlpha" type="matrix" values="0 0 0 0 0 0 0 0 0 0 0 0 0 0 0 0 0 0 127 0" result="hardAlpha"/>
<feOffset dy="4"/>
<feGaussianBlur stdDeviation="2"/>
<feComposite in2="hardAlpha" operator="out"/>
<feColorMatrix type="matrix" values="0 0 0 0 0 0 0 0 0 0 0 0 0 0 0 0 0 0 0.25 0"/>
<feBlend mode="normal" in2="BackgroundImageFix" result="effect1_dropShadow_516_9"/>
<feBlend mode="normal" in="SourceGraphic" in2="effect1_dropShadow_516_9" result="shape"/>
</filter>
<filter id="filter18_d_516_9" x="52.4221" y="30.5979" width="42.0009" height="45.8927" filterUnits="userSpaceOnUse" color-interpolation-filters="sRGB">
<feFlood flood-opacity="0" result="BackgroundImageFix"/>
<feColorMatrix in="SourceAlpha" type="matrix" values="0 0 0 0 0 0 0 0 0 0 0 0 0 0 0 0 0 0 127 0" result="hardAlpha"/>
<feOffset dy="4"/>
<feGaussianBlur stdDeviation="2"/>
<feComposite in2="hardAlpha" operator="out"/>
<feColorMatrix type="matrix" values="0 0 0 0 0 0 0 0 0 0 0 0 0 0 0 0 0 0 0.25 0"/>
<feBlend mode="normal" in2="BackgroundImageFix" result="effect1_dropShadow_516_9"/>
<feBlend mode="normal" in="SourceGraphic" in2="effect1_dropShadow_516_9" result="shape"/>
</filter>
<filter id="filter19_d_516_9" x="64.5207" y="46.5744" width="16.8381" height="16.7647" filterUnits="userSpaceOnUse" color-interpolation-filters="sRGB">
<feFlood flood-opacity="0" result="BackgroundImageFix"/>
<feColorMatrix in="SourceAlpha" type="matrix" values="0 0 0 0 0 0 0 0 0 0 0 0 0 0 0 0 0 0 127 0" result="hardAlpha"/>
<feOffset dy="4"/>
<feGaussianBlur stdDeviation="2"/>
<feComposite in2="hardAlpha" operator="out"/>
<feColorMatrix type="matrix" values="0 0 0 0 0 0 0 0 0 0 0 0 0 0 0 0 0 0 0.25 0"/>
<feBlend mode="normal" in2="BackgroundImageFix" result="effect1_dropShadow_516_9"/>
<feBlend mode="normal" in="SourceGraphic" in2="effect1_dropShadow_516_9" result="shape"/>
</filter>
<filter id="filter20_d_516_9" x="68.4513" y="34.9498" width="13.0503" height="13.0084" filterUnits="userSpaceOnUse" color-interpolation-filters="sRGB">
<feFlood flood-opacity="0" result="BackgroundImageFix"/>
<feColorMatrix in="SourceAlpha" type="matrix" values="0 0 0 0 0 0 0 0 0 0 0 0 0 0 0 0 0 0 127 0" result="hardAlpha"/>
<feOffset dy="4"/>
<feGaussianBlur stdDeviation="2"/>
<feComposite in2="hardAlpha" operator="out"/>
<feColorMatrix type="matrix" values="0 0 0 0 0 0 0 0 0 0 0 0 0 0 0 0 0 0 0.25 0"/>
<feBlend mode="normal" in2="BackgroundImageFix" result="effect1_dropShadow_516_9"/>
<feBlend mode="normal" in="SourceGraphic" in2="effect1_dropShadow_516_9" result="shape"/>
</filter>
<filter id="filter21_d_516_9" x="77.4829" y="39.8509" width="13.0503" height="13.0084" filterUnits="userSpaceOnUse" color-interpolation-filters="sRGB">
<feFlood flood-opacity="0" result="BackgroundImageFix"/>
<feColorMatrix in="SourceAlpha" type="matrix" values="0 0 0 0 0 0 0 0 0 0 0 0 0 0 0 0 0 0 127 0" result="hardAlpha"/>
<feOffset dy="4"/>
<feGaussianBlur stdDeviation="2"/>
<feComposite in2="hardAlpha" operator="out"/>
<feColorMatrix type="matrix" values="0 0 0 0 0 0 0 0 0 0 0 0 0 0 0 0 0 0 0.25 0"/>
<feBlend mode="normal" in2="BackgroundImageFix" result="effect1_dropShadow_516_9"/>
<feBlend mode="normal" in="SourceGraphic" in2="effect1_dropShadow_516_9" result="shape"/>
</filter>
<filter id="filter22_d_516_9" x="59.114" y="51.3247" width="13.2448" height="13.265" filterUnits="userSpaceOnUse" color-interpolation-filters="sRGB">
<feFlood flood-opacity="0" result="BackgroundImageFix"/>
<feColorMatrix in="SourceAlpha" type="matrix" values="0 0 0 0 0 0 0 0 0 0 0 0 0 0 0 0 0 0 127 0" result="hardAlpha"/>
<feOffset dy="4"/>
<feGaussianBlur stdDeviation="2"/>
<feComposite in2="hardAlpha" operator="out"/>
<feColorMatrix type="matrix" values="0 0 0 0 0 0 0 0 0 0 0 0 0 0 0 0 0 0 0.25 0"/>
<feBlend mode="normal" in2="BackgroundImageFix" result="effect1_dropShadow_516_9"/>
<feBlend mode="normal" in="SourceGraphic" in2="effect1_dropShadow_516_9" result="shape"/>
</filter>
<filter id="filter23_d_516_9" x="65.1362" y="41.3451" width="10.6224" height="10.6325" filterUnits="userSpaceOnUse" color-interpolation-filters="sRGB">
<feFlood flood-opacity="0" result="BackgroundImageFix"/>
<feColorMatrix in="SourceAlpha" type="matrix" values="0 0 0 0 0 0 0 0 0 0 0 0 0 0 0 0 0 0 127 0" result="hardAlpha"/>
<feOffset dy="4"/>
<feGaussianBlur stdDeviation="2"/>
<feComposite in2="hardAlpha" operator="out"/>
<feColorMatrix type="matrix" values="0 0 0 0 0 0 0 0 0 0 0 0 0 0 0 0 0 0 0.25 0"/>
<feBlend mode="normal" in2="BackgroundImageFix" result="effect1_dropShadow_516_9"/>
<feBlend mode="normal" in="SourceGraphic" in2="effect1_dropShadow_516_9" result="shape"/>
</filter>
<filter id="filter24_d_516_9" x="66.6811" y="59.979" width="13.0503" height="13.0084" filterUnits="userSpaceOnUse" color-interpolation-filters="sRGB">
<feFlood flood-opacity="0" result="BackgroundImageFix"/>
<feColorMatrix in="SourceAlpha" type="matrix" values="0 0 0 0 0 0 0 0 0 0 0 0 0 0 0 0 0 0 127 0" result="hardAlpha"/>
<feOffset dy="4"/>
<feGaussianBlur stdDeviation="2"/>
<feComposite in2="hardAlpha" operator="out"/>
<feColorMatrix type="matrix" values="0 0 0 0 0 0 0 0 0 0 0 0 0 0 0 0 0 0 0.25 0"/>
<feBlend mode="normal" in2="BackgroundImageFix" result="effect1_dropShadow_516_9"/>
<feBlend mode="normal" in="SourceGraphic" in2="effect1_dropShadow_516_9" result="shape"/>
</filter>
<filter id="filter25_d_516_9" x="74.8916" y="50.4958" width="13.0503" height="13.0084" filterUnits="userSpaceOnUse" color-interpolation-filters="sRGB">
<feFlood flood-opacity="0" result="BackgroundImageFix"/>
<feColorMatrix in="SourceAlpha" type="matrix" values="0 0 0 0 0 0 0 0 0 0 0 0 0 0 0 0 0 0 127 0" result="hardAlpha"/>
<feOffset dy="4"/>
<feGaussianBlur stdDeviation="2"/>
<feComposite in2="hardAlpha" operator="out"/>
<feColorMatrix type="matrix" values="0 0 0 0 0 0 0 0 0 0 0 0 0 0 0 0 0 0 0.25 0"/>
<feBlend mode="normal" in2="BackgroundImageFix" result="effect1_dropShadow_516_9"/>
<feBlend mode="normal" in="SourceGraphic" in2="effect1_dropShadow_516_9" result="shape"/>
</filter>
<filter id="filter26_d_516_9" x="71.1578" y="40.9306" width="13.0503" height="13.0084" filterUnits="userSpaceOnUse" color-interpolation-filters="sRGB">
<feFlood flood-opacity="0" result="BackgroundImageFix"/>
<feColorMatrix in="SourceAlpha" type="matrix" values="0 0 0 0 0 0 0 0 0 0 0 0 0 0 0 0 0 0 127 0" result="hardAlpha"/>
<feOffset dy="4"/>
<feGaussianBlur stdDeviation="2"/>
<feComposite in2="hardAlpha" operator="out"/>
<feColorMatrix type="matrix" values="0 0 0 0 0 0 0 0 0 0 0 0 0 0 0 0 0 0 0.25 0"/>
<feBlend mode="normal" in2="BackgroundImageFix" result="effect1_dropShadow_516_9"/>
<feBlend mode="normal" in="SourceGraphic" in2="effect1_dropShadow_516_9" result="shape"/>
</filter>
</defs>
</svg>
